<?xml version="1.0" standalone="no"?>
<!DOCTYPE svg PUBLIC "-//W3C//DTD SVG 20010904//EN"
 "http://www.w3.org/TR/2001/REC-SVG-20010904/DTD/svg10.dtd">
<svg version="1.0" xmlns="http://www.w3.org/2000/svg"
 width="398.000000pt" height="398.000000pt" viewBox="0 0 398.000000 398.000000"
 preserveAspectRatio="xMidYMid meet">
<metadata>
Created by potrace 1.14, written by Peter Selinger 2001-2017
</metadata>
<g transform="translate(0.000000,398.000000) scale(0.100000,-0.100000)"
fill="#000000" stroke="none">
<path d="M1655 3605 c-564 -119 -1036 -540 -1218 -1085 -65 -194 -81 -300 -82
-525 0 -155 4 -220 18 -290 35 -171 74 -290 147 -440 206 -427 595 -746 1064
-873 100 -27 104 -27 416 -27 297 0 320 1 398 23 134 36 200 61 317 118 406
197 706 538 850 969 38 114 85 361 85 446 l0 49 -253 0 c-140 0 -315 -3 -390
-7 l-137 -6 0 -484 0 -483 -160 0 -160 0 -2 485 -3 485 -175 3 -175 2 -3 -487
-2 -488 -160 0 -160 0 -2 488 -3 487 -235 0 -235 0 -5 -485 -5 -485 -160 0
-160 0 1 681 c1 728 0 725 52 828 32 66 113 150 184 192 83 48 156 64 292 64
l116 0 0 -159 0 -159 -117 -4 c-96 -3 -123 -7 -147 -23 -30 -20 -56 -69 -56
-105 0 -20 2 -20 578 -18 l577 3 3 233 2 232 160 0 160 0 0 -235 0 -235 375 0
c213 0 375 4 375 9 0 17 -49 196 -70 254 -192 539 -679 955 -1239 1058 -161
29 -505 26 -656 -6z m535 -1005 l0 -160 -160 0 -160 0 0 160 0 160 160 0 160
0 0 -160z"/>
</g>
</svg>
